<?xml version="1.0" encoding="UTF-8"?>
<svg version="1.1" xmlns="http://www.w3.org/2000/svg" width="1150" height="900">
<path d="M0 0 C379.5 0 759 0 1150 0 C1150 297 1150 594 1150 900 C770.5 900 391 900 0 900 C0 603 0 306 0 0 Z " fill="#000000" transform="translate(0,0)"/>
<path d="M0 0 C1.12224472 -0.00058411 2.24448944 -0.00116821 3.40074158 -0.00177002 C7.11285249 0.00101831 10.82416204 0.03214732 14.53613281 0.06347656 C17.10873984 0.07093624 19.68135255 0.07663046 22.25396729 0.08062744 C28.33490761 0.09434328 34.41551685 0.1258734 40.49633241 0.1660254 C47.42007374 0.21074994 54.34382889 0.2327318 61.26767874 0.25280714 C75.50836397 0.29460659 89.74879032 0.36576094 103.98925781 0.45410156 C103.98925781 4.74410156 103.98925781 9.03410156 103.98925781 13.45410156 C112.89925781 13.45410156 121.80925781 13.45410156 130.98925781 13.45410156 C130.98925781 9.16410156 130.98925781 4.87410156 130.98925781 0.45410156 C135.73979293 0.37974934 140.48998669 0.32540466 145.2409668 0.28930664 C146.8559357 0.27425281 148.47086394 0.25380508 150.08569336 0.2277832 C152.41172336 0.1912487 154.73721122 0.17434142 157.06347656 0.16113281 C158.14032967 0.13790703 158.14032967 0.13790703 159.23893738 0.11421204 C163.68857971 0.11273002 166.41607052 0.78486693 169.98925781 3.45410156 C171.54096429 5.00580804 171.1279001 6.48036155 171.14315796 8.64080811 C171.15175842 9.54368561 171.16035889 10.44656311 171.16921997 11.37680054 C171.17560989 12.87444443 171.17560989 12.87444443 171.18212891 14.40234375 C171.19439514 15.97059402 171.19439514 15.97059402 171.20690918 17.57052612 C171.23182104 21.04733701 171.2482944 24.5241069 171.26269531 28.00097656 C171.26801899 29.18533546 171.27334267 30.36969437 171.27882767 31.58994293 C171.30558501 37.85910903 171.32495124 44.12825504 171.33935547 50.39746094 C171.35600533 56.88217487 171.40077928 63.36638078 171.45172691 69.85090256 C171.48534239 74.82827353 171.49692677 79.80552316 171.50258255 84.78299713 C171.50931128 87.17365652 171.52457505 89.56430747 171.54847336 91.95485687 C171.58000281 95.29975536 171.58017936 98.64327389 171.57275391 101.98828125 C171.58915924 102.97861359 171.60556458 103.96894592 171.62246704 104.98928833 C171.58043171 109.60874772 171.49677551 111.76771125 168.68333435 115.57273865 C165.14691914 118.04233457 162.22106381 118.09183561 158.06347656 117.94238281 C156.94209038 117.93177071 156.94209038 117.93177071 155.79804993 117.92094421 C153.42324379 117.89307801 151.05084431 117.83036288 148.67675781 117.76660156 C147.06155763 117.74150825 145.44632027 117.71869687 143.83105469 117.69824219 C139.88286962 117.64327803 135.93647093 117.55706683 131.98925781 117.45410156 C133.53494921 112.67633232 135.07401537 107.95962825 137.17675781 103.39160156 C137.69302734 102.26044922 137.69302734 102.26044922 138.21972656 101.10644531 C138.47367188 100.56117188 138.72761719 100.01589844 138.98925781 99.45410156 C137.66925781 99.12410156 136.34925781 98.79410156 134.98925781 98.45410156 C134.81136719 99.52192871 134.81136719 99.52192871 134.62988281 100.61132812 C133.95779433 103.59372078 132.96393401 106.1393551 131.73925781 108.93847656 C131.29582031 109.95554687 130.85238281 110.97261719 130.39550781 112.02050781 C129.93144531 113.07109375 129.46738281 114.12167969 128.98925781 115.20410156 C128.52519531 116.27015625 128.06113281 117.33621094 127.58300781 118.43457031 C124.13069772 126.31266165 124.13069772 126.31266165 122.98925781 127.45410156 C120.63612227 127.52681898 118.28092113 127.53781024 115.92675781 127.51660156 C113.99123047 127.50306641 113.99123047 127.50306641 112.01660156 127.48925781 C111.01757812 127.47765625 110.01855469 127.46605469 108.98925781 127.45410156 C110.24089576 123.4652367 111.70510992 119.79691589 113.61425781 116.07910156 C114.06027344 115.20511719 114.50628906 114.33113281 114.96582031 113.43066406 C115.30355469 112.77839844 115.64128906 112.12613281 115.98925781 111.45410156 C116.64925781 111.45410156 117.30925781 111.45410156 117.98925781 111.45410156 C117.92738281 110.60847656 117.86550781 109.76285156 117.80175781 108.89160156 C118.02941409 104.71790313 119.19133596 102.1997721 120.98925781 98.45410156 C119.66925781 98.45410156 118.34925781 98.45410156 116.98925781 98.45410156 C116.70050781 99.34097656 116.41175781 100.22785156 116.11425781 101.14160156 C115.46342709 103.05793648 114.7746223 104.96386089 113.98925781 106.82910156 C113.12364352 109.10133907 112.5025148 111.26235839 111.92675781 113.61816406 C111.46269531 115.51695312 111.46269531 115.51695312 110.98925781 117.45410156 C95.15158512 117.57088127 79.31402857 117.65906317 63.47603226 117.71316242 C56.12222149 117.73894891 48.76867817 117.77410737 41.41503906 117.83129883 C35.00590168 117.88112087 28.59695797 117.91338937 22.18763232 117.92454404 C18.79353789 117.93106505 15.39999753 117.94639887 12.00608063 117.98275185 C8.21790878 118.0189169 4.43089412 118.02405185 0.64257812 118.02172852 C-0.48383087 118.0397049 -1.61023987 118.05768127 -2.77078247 118.07620239 C-10.19139132 118.02678091 -10.19139132 118.02678091 -13.70672607 115.56976318 C-15.60856696 111.02572987 -15.56843268 106.91867113 -15.52832031 102.03588867 C-15.53532959 100.98819809 -15.54233887 99.94050751 -15.54956055 98.86106873 C-15.56715365 95.400924 -15.55551333 91.94159823 -15.54199219 88.48144531 C-15.5446865 86.07678572 -15.54856842 83.67212718 -15.55358887 81.26747131 C-15.55948555 76.22955953 -15.55091431 71.19193153 -15.53222656 66.15405273 C-15.50942512 59.6917792 -15.52256725 53.23016972 -15.54651642 46.76792049 C-15.56095904 41.80342083 -15.55637558 36.83907904 -15.54600525 31.87457466 C-15.54333437 29.49150069 -15.54662034 27.10841245 -15.55592346 24.72535515 C-15.56606468 21.39748942 -15.55062122 18.07070496 -15.52832031 14.74291992 C-15.53641724 13.75527649 -15.54451416 12.76763306 -15.55285645 11.75006104 C-15.50580531 7.96654032 -15.40981577 5.23037243 -13.66656494 1.83943176 C-9.27625232 -0.450643 -4.87326803 -0.06605657 0 0 Z " fill="#FBFBFB" transform="translate(97.0107421875,386.5458984375)"/>
<path d="M0 0 C1.16789063 0.98033203 1.16789063 0.98033203 2.359375 1.98046875 C3.43445313 2.79064453 3.43445313 2.79064453 4.53125 3.6171875 C10.37912114 8.60720977 12.8131586 15.73083455 13.7746582 23.21142578 C13.96561985 26.62270652 14.0036653 30.00165679 13.984375 33.41796875 C14.01660156 34.55556641 14.04882812 35.69316406 14.08203125 36.86523438 C14.0943307 47.64570488 10.36897106 55.85323825 3.359375 63.98046875 C-0.25392003 66.74809899 -3.09459322 68.44564148 -7.640625 68.98046875 C-7.640625 69.64046875 -7.640625 70.30046875 -7.640625 70.98046875 C-22.02961652 73.03603897 -39.64420649 74.76908132 -52.2578125 66.203125 C-54.91661952 63.72302468 -56.48618617 61.33276977 -58.265625 58.16796875 C-58.83539062 57.17152344 -59.40515625 56.17507813 -59.9921875 55.1484375 C-63.26362369 48.86138832 -65.1332649 43.92764989 -64.953125 36.79296875 C-64.94112061 36.04974365 -64.92911621 35.30651855 -64.91674805 34.54077148 C-64.63673411 23.49392365 -63.5228959 12.40851737 -55.74609375 3.91015625 C-42.40453621 -8.28346613 -14.99848501 -10.3787859 0 0 Z " fill="#F6F6F6" transform="translate(842.640625,414.01953125)"/>
<path d="M0 0 C10.1784375 -0.12375 10.1784375 -0.12375 20.5625 -0.25 C22.67084229 -0.28641602 24.77918457 -0.32283203 26.95141602 -0.36035156 C53.02702851 -0.62545465 53.02702851 -0.62545465 60.19750977 6.04394531 C61.6720986 7.96121226 62.80991726 9.90010763 64 12 C64.50789062 12.50660156 65.01578125 13.01320313 65.5390625 13.53515625 C72.02903746 20.04248409 71.23904501 30.81736749 71.3125 39.25 C71.35600586 40.89162109 71.35600586 40.89162109 71.40039062 42.56640625 C71.48207979 53.06032252 68.31678863 61.34637711 61 69 C58.125 70.5 58.125 70.5 56 71 C56 71.66 56 72.32 56 73 C47.57142857 75.28571429 47.57142857 75.28571429 43 75 C43 75.66 43 76.32 43 77 C28.81 77 14.62 77 0 77 C0 51.59 0 26.18 0 0 Z " fill="#F4F4F4" transform="translate(676,409)"/>
<path d="M0 0 C12.4059375 -0.061875 12.4059375 -0.061875 25.0625 -0.125 C27.66133057 -0.14320801 30.26016113 -0.16141602 32.93774414 -0.18017578 C35.01187941 -0.18602042 37.08601699 -0.19111605 39.16015625 -0.1953125 C40.75821106 -0.2106604 40.75821106 -0.2106604 42.3885498 -0.22631836 C55.49545682 -0.22938036 55.49545682 -0.22938036 59.7421875 3.55078125 C61.97438833 7.0222384 63.69955193 9.79372708 64 14 C64.05027344 14.69222656 64.10054688 15.38445312 64.15234375 16.09765625 C64.36966174 21.30459519 63.54085917 24.36017021 61 29 C61.75150023 32.27773504 61.75150023 32.27773504 65 34 C69.96453743 41.73737271 70.00211513 51.14346899 69 60 C67.74813227 64.16288171 66.06009929 67.55354016 62.625 70.3125 C61.77808594 71.01826172 61.77808594 71.01826172 60.9140625 71.73828125 C56.85975211 74.41081646 53.29689737 75.24963418 48.4753418 75.22705078 C47.37959839 75.22680908 46.28385498 75.22656738 45.15490723 75.22631836 C44.01453003 75.21608643 42.87415283 75.20585449 41.69921875 75.1953125 C40.64271118 75.19329834 39.58620361 75.19128418 38.49768066 75.18920898 C34.56090945 75.1787655 30.62420025 75.15084292 26.6875 75.125 C17.880625 75.08375 9.07375 75.0425 0 75 C0 50.25 0 25.5 0 0 Z " fill="#FCFCFC" transform="translate(327,410)"/>
<path d="M0 0 C7.22655492 -0.02529174 14.4530985 -0.04284219 21.6796875 -0.05493164 C24.13965278 -0.05996989 26.59961505 -0.0668006 29.05957031 -0.07543945 C32.58920025 -0.08752723 36.11879069 -0.09323329 39.6484375 -0.09765625 C40.75367767 -0.10281754 41.85891785 -0.10797882 42.99765015 -0.11329651 C44.01855743 -0.11337204 45.03946472 -0.11344757 46.09130859 -0.11352539 C46.99287689 -0.115746 47.89444519 -0.11796661 48.82333374 -0.12025452 C51 0 51 0 53 1 C53 1.66 53 2.32 53 3 C53.721875 3.061875 54.44375 3.12375 55.1875 3.1875 C59.03599401 4.29928716 60.52822622 5.86017925 63 9 C66.54420493 18.11366981 66.58565822 30.12158366 62.91015625 39.19921875 C60.78952155 43.39498097 59.1539475 45.53398274 54.75 47.3125 C53.8425 47.539375 52.935 47.76625 52 48 C52 48.99 52 49.98 52 51 C52.99 51.33 53.98 51.66 55 52 C56.3503418 53.79418945 56.3503418 53.79418945 57.69921875 56.11328125 C58.18583984 56.94923828 58.67246094 57.78519531 59.17382812 58.64648438 C59.9230957 59.96616211 59.9230957 59.96616211 60.6875 61.3125 C61.19861328 62.18068359 61.70972656 63.04886719 62.23632812 63.94335938 C66 70.49084196 66 70.49084196 66 75 C59.4 75 52.8 75 46 75 C45.01 72.9271875 45.01 72.9271875 44 70.8125 C43.00056578 68.87470809 42.00049968 66.93724202 41 65 C40.4534375 63.83726562 39.906875 62.67453125 39.34375 61.4765625 C37.46974426 57.87942436 35.79170136 54.95072232 33 52 C28.31131781 50.558983 24.99253769 50.739972 20 51 C20 59.25 20 67.5 20 76 C16.885625 76.020625 13.77125 76.04125 10.5625 76.0625 C9.08825562 76.07615601 9.08825562 76.07615601 7.58422852 76.09008789 C6.81522217 76.09258545 6.04621582 76.09508301 5.25390625 76.09765625 C4.46314697 76.10289307 3.6723877 76.10812988 2.85766602 76.11352539 C1 76 1 76 0 75 C-0.09492722 72.65746218 -0.12559791 70.34453896 -0.11352539 68.00170898 C-0.11367142 67.27004517 -0.11381744 66.53838135 -0.1139679 65.7845459 C-0.11326867 63.35503216 -0.10547585 60.92559417 -0.09765625 58.49609375 C-0.0957921 56.81600486 -0.09436819 55.13591543 -0.09336853 53.45582581 C-0.08954307 49.02526357 -0.07971256 44.5947339 -0.06866455 40.16418457 C-0.05845103 35.64657024 -0.05387104 31.12895066 -0.04882812 26.61132812 C-0.03809031 17.74087107 -0.02101356 8.87043824 0 0 Z " fill="#FBFBFB" transform="translate(887,410)"/>
<path d="M0 0 C6.6 0 13.2 0 20 0 C25.9284916 13.70140281 25.9284916 13.70140281 28.1940918 19.82617188 C29.09426915 22.25427824 30.01442649 24.67425701 30.9375 27.09375 C31.27523438 27.97933594 31.61296875 28.86492187 31.9609375 29.77734375 C32.30382813 30.67582031 32.64671875 31.57429688 33 32.5 C34.33542251 35.9992086 35.66927426 39.49900236 37 43 C37.2673999 43.70286133 37.5347998 44.40572266 37.81030273 45.12988281 C39.92219292 50.71657307 41.88902626 56.35076876 43.83789062 61.99609375 C44.83888685 64.86269992 45.80597934 67.61836201 47.18359375 70.328125 C48 72 48 72 48 75 C41.73 75 35.46 75 29 75 C27.35 70.71 25.7 66.42 24 62 C14.43 61.67 4.86 61.34 -5 61 C-5.99 65.95 -5.99 65.95 -7 71 C-7.66 72.32 -8.32 73.64 -9 75 C-15.27 75 -21.54 75 -28 75 C-26.8780083 67.14605809 -26.8780083 67.14605809 -25.125 63.0625 C-23.61034991 59.49054959 -22.19617853 55.89617894 -20.84326172 52.25952148 C-18.91298419 47.08733894 -16.92932625 41.93511426 -14.9609375 36.77734375 C-8.81420737 21.53009862 -8.81420737 21.53009862 -3.9375 5.875 C-3.628125 4.92625 -3.31875 3.9775 -3 3 C-2.01 2.67 -1.02 2.34 0 2 C0 1.34 0 0.68 0 0 Z " fill="#F7F7F7" transform="translate(1014,410)"/>
<path d="M0 0 C6.27 0 12.54 0 19 0 C19.01458252 1.41740479 19.02916504 2.83480957 19.04418945 4.29516602 C19.10231444 9.57145981 19.17954705 14.84733319 19.26245117 20.12329102 C19.29563367 22.40349486 19.32368624 24.68377953 19.34643555 26.96411133 C19.38010382 30.24855882 19.43242726 33.53227014 19.48828125 36.81640625 C19.49467117 37.83021866 19.5010611 38.84403107 19.50764465 39.88856506 C19.65965149 47.26435754 20.8040025 53.37100271 26 59 C32.08041759 61.02680586 40.07721994 61.10961818 46.125 58.8125 C49.81187157 56.48816792 51.31425969 54.28348615 52.55747986 50.14361572 C53.04791945 47.76787296 53.16064126 45.56518887 53.20532227 43.13964844 C53.22526749 42.17895447 53.24521271 41.2182605 53.26576233 40.22845459 C53.29083107 38.68451019 53.29083107 38.68451019 53.31640625 37.109375 C53.33718735 36.04962463 53.35796844 34.98987427 53.37937927 33.89801025 C53.44472186 30.51540562 53.50368881 27.13272388 53.5625 23.75 C53.60569975 21.45572122 53.64931451 19.16145021 53.69335938 16.8671875 C53.80038765 11.24487052 53.90169833 5.62247605 54 0 C60.27 0 66.54 0 73 0 C73.07453662 6.93763926 73.12878482 13.87504186 73.16479492 20.81298828 C73.17981778 23.16980046 73.20024196 25.52658498 73.22631836 27.88330078 C73.26298821 31.28424942 73.27979196 34.68482621 73.29296875 38.0859375 C73.30845261 39.12801361 73.32393646 40.17008972 73.33988953 41.2437439 C73.3422324 51.58621769 71.12414529 61.18883022 64 69 C55.48999962 75.65690147 46.73441352 77.38303444 36.1875 77.3125 C34.86745972 77.30404053 34.86745972 77.30404053 33.52075195 77.29541016 C24.59049585 77.12895157 16.25283907 76.34454722 9.5625 69.86328125 C1.37462387 60.09923896 -0.3167728 50.66427534 -0.1953125 38.28125 C-0.1924826 37.18276733 -0.18965271 36.08428467 -0.18673706 34.95251465 C-0.17560486 31.468229 -0.15051298 27.98420704 -0.125 24.5 C-0.11496121 22.1276079 -0.10583694 19.75521174 -0.09765625 17.3828125 C-0.07568829 11.58844115 -0.04120648 5.79426518 0 0 Z " fill="#F5F5F5" transform="translate(428,409)"/>
<path d="M0 0 C6.27 0 12.54 0 19 0 C19 19.47 19 38.94 19 59 C33.52 59 48.04 59 63 59 C63 64.28 63 69.56 63 75 C61.23276189 76.76723811 58.6968116 76.12762833 56.30273438 76.12939453 C55.08477173 76.13254669 53.86680908 76.13569885 52.61193848 76.13894653 C51.27254195 76.13715675 49.93314576 76.1351058 48.59375 76.1328125 C47.2299396 76.1334856 45.86612932 76.13445567 44.50231934 76.13571167 C41.64069479 76.13718838 38.7791014 76.13503497 35.91748047 76.13037109 C32.24181386 76.12467381 28.56622026 76.12795296 24.89055634 76.13394356 C22.07337896 76.13754991 19.25621902 76.13641025 16.43904114 76.13381577 C15.08339937 76.1331467 13.72775604 76.13397421 12.37211609 76.13629532 C10.48049956 76.13882301 8.58887751 76.13429014 6.69726562 76.12939453 C5.07963318 76.12820114 5.07963318 76.12820114 3.42932129 76.12698364 C1 76 1 76 0 75 C-0.09492722 72.65746218 -0.12559791 70.34453896 -0.11352539 68.00170898 C-0.11367142 67.27004517 -0.11381744 66.53838135 -0.1139679 65.7845459 C-0.11326867 63.35503216 -0.10547585 60.92559417 -0.09765625 58.49609375 C-0.0957921 56.81600486 -0.09436819 55.13591543 -0.09336853 53.45582581 C-0.08954307 49.02526357 -0.07971256 44.5947339 -0.06866455 40.16418457 C-0.05845103 35.64657024 -0.05387104 31.12895066 -0.04882812 26.61132812 C-0.03809031 17.74086877 -0.02049329 8.87044219 0 0 Z " fill="#FEFEFE" transform="translate(582,410)"/>
<path d="M0 0 C3.72954794 2.01613549 5.89765438 3.41288782 8.28125 6.98828125 C8.28125 7.97828125 8.28125 8.96828125 8.28125 9.98828125 C8.94125 9.98828125 9.60125 9.98828125 10.28125 9.98828125 C11.41702517 14.08697289 11.50200741 18.07157153 11.53125 22.30078125 C11.551875 23.03490234 11.5725 23.76902344 11.59375 24.52539062 C11.64107139 31.1917909 10.19806316 35.79095885 5.71875 40.92578125 C3.28125 42.98828125 3.28125 42.98828125 1.28125 42.98828125 C1.28125 43.64828125 1.28125 44.30828125 1.28125 44.98828125 C-1.07323675 45.04282534 -3.42642875 45.08220915 -5.78125 45.11328125 C-7.09222656 45.13648438 -8.40320313 45.1596875 -9.75390625 45.18359375 C-15.41434486 44.90475441 -19.38154969 44.26605043 -23.53125 40.30078125 C-27.68368026 34.01281543 -28.08226295 27.73729146 -28.09375 20.42578125 C-28.11824219 19.60142578 -28.14273438 18.77707031 -28.16796875 17.92773438 C-28.19843994 11.57449046 -26.63276494 7.98779296 -22.12109375 3.34375 C-15.6977704 -1.77777982 -7.82783081 -2.91294279 0 0 Z " fill="#060606" transform="translate(825.71875,425.01171875)"/>
<path d="M0 0 C6.27 0 12.54 0 19 0 C19 25.41 19 50.82 19 77 C12.73 77 6.46 77 0 77 C0 51.59 0 26.18 0 0 Z " fill="#F4F4F4" transform="translate(532,409)"/>
<path d="M0 0 C6.27 0 12.54 0 19 0 C19 0.66 19 1.32 19 2 C19.70125 2.0825 20.4025 2.165 21.125 2.25 C24.8977393 3.23419286 27.04137391 4.42728166 30 7 C33.82087995 13.60099783 33.82159878 21.61473987 33 29 C31.44457317 34.76176929 29.17080266 38.79902693 24 42 C18 45 18 45 0 45 C0 30.15 0 15.3 0 0 Z " fill="#090909" transform="translate(695,425)"/>
<path d="M0 0 C9.9 0 19.8 0 30 0 C30.66 5.28 31.32 10.56 32 16 C37.28 16 42.56 16 48 16 C48.495 19.96 48.495 19.96 49 24 C26.56 24 4.12 24 -19 24 C-18.67 21.36 -18.34 18.72 -18 16 C-10.08 15.505 -10.08 15.505 -2 15 C-1.34 10.05 -0.68 5.1 0 0 Z " fill="#FBFBFB" transform="translate(160,508)"/>
<path d="M0 0 C8.58 0 17.16 0 26 0 C26 8.91 26 17.82 26 27 C17.42 27 8.84 27 0 27 C0 18.09 0 9.18 0 0 Z " fill="#111111" transform="translate(232,397)"/>
<path d="M0 0 C10.23 0 20.46 0 31 0 C31.77303205 3.09212818 32.18599832 5.38525175 32.25 8.5 C32.27578125 9.2528125 32.3015625 10.005625 32.328125 10.78125 C31.89301232 13.72344053 31.11186586 14.89766054 29 17 C25.99731445 17.45410156 25.99731445 17.45410156 22.36328125 17.390625 C21.06455078 17.37773437 19.76582031 17.36484375 18.42773438 17.3515625 C17.05597897 17.31814101 15.68423419 17.28428123 14.3125 17.25 C12.92906188 17.22993376 11.54559616 17.21168319 10.16210938 17.1953125 C6.77444301 17.14809764 3.38713489 17.0763537 0 17 C0 11.39 0 5.78 0 0 Z " fill="#131313" transform="translate(345,453)"/>
<path d="M0 0 C3.77125953 -0.08074862 7.54079993 -0.1403818 11.3125 -0.1875 C12.38435547 -0.21263672 13.45621094 -0.23777344 14.56054688 -0.26367188 C15.58857422 -0.27333984 16.61660156 -0.28300781 17.67578125 -0.29296875 C19.0975769 -0.31653442 19.0975769 -0.31653442 20.5480957 -0.34057617 C23 0 23 0 24.77026367 1.33081055 C27.01638806 4.37959999 27.18388716 7.27374699 27.25 10.9375 C27.27578125 11.79214844 27.3015625 12.64679688 27.328125 13.52734375 C26.92041299 16.59974495 26.1599144 17.7881021 24 20 C21.45629883 20.45410156 21.45629883 20.45410156 18.45703125 20.390625 C17.38388672 20.37773437 16.31074219 20.36484375 15.20507812 20.3515625 C14.08552734 20.31804687 12.96597656 20.28453125 11.8125 20.25 C10.68134766 20.23195313 9.55019531 20.21390625 8.38476562 20.1953125 C5.58948369 20.14813475 2.79463616 20.07639097 0 20 C0 13.4 0 6.8 0 0 Z " fill="#141414" transform="translate(906,425)"/>
<path d="M0 0 C0.83265381 0.00523682 1.66530762 0.01047363 2.52319336 0.01586914 C3.33280518 0.0183667 4.14241699 0.02086426 4.9765625 0.0234375 C6.01159912 0.0325415 7.04663574 0.04164551 8.11303711 0.05102539 C11.39241211 0.07165039 14.67178711 0.09227539 18.05053711 0.11352539 C18.05053711 7.37352539 18.05053711 14.63352539 18.05053711 22.11352539 C11.12053711 22.11352539 4.19053711 22.11352539 -2.94946289 22.11352539 C-2.97008789 18.66915039 -2.99071289 15.22477539 -3.01196289 11.67602539 C-3.02106689 10.58878174 -3.0301709 9.50153809 -3.03955078 8.38134766 C-3.04204834 7.53113037 -3.0445459 6.68091309 -3.04711914 5.80493164 C-3.05235596 4.9303833 -3.05759277 4.05583496 -3.06298828 3.15478516 C-2.91244467 0.44791384 -2.70813365 0.15770597 0 0 Z " fill="#151515" transform="translate(208.949462890625,411.886474609375)"/>
<path d="M0 0 C6.27 0 12.54 0 19 0 C19 6.27 19 12.54 19 19 C12.73 19 6.46 19 0 19 C0 12.73 0 6.46 0 0 Z " fill="#F3F3F3" transform="translate(205,377)"/>
<path d="M0 0 C1.12341797 -0.01224609 2.24683594 -0.02449219 3.40429688 -0.03710938 C5.01208008 -0.04000977 5.01208008 -0.04000977 6.65234375 -0.04296875 C8.13528931 -0.04913208 8.13528931 -0.04913208 9.64819336 -0.05541992 C12.0625 0.1875 12.0625 0.1875 14.0625 2.1875 C14.2578125 4.5703125 14.2578125 4.5703125 14.1875 7.3125 C14.16945313 8.22257812 14.15140625 9.13265625 14.1328125 10.0703125 C14.10960937 10.76898438 14.08640625 11.46765625 14.0625 12.1875 C11.40071779 13.5183911 9.37510604 13.30018993 6.3984375 13.28515625 C5.27695312 13.28193359 4.15546875 13.27871094 3 13.27539062 C1.824375 13.26701172 0.64875 13.25863281 -0.5625 13.25 C-1.74585938 13.24548828 -2.92921875 13.24097656 -4.1484375 13.23632812 C-7.07817507 13.22451467 -10.00781272 13.20804258 -12.9375 13.1875 C-12.96436553 11.20840602 -12.98383375 9.22921029 -13 7.25 C-13.01160156 6.14785156 -13.02320313 5.04570312 -13.03515625 3.91015625 C-12.81084303 -2.34369628 -4.84935887 0.00277265 0 0 Z " fill="#1B1B1B" transform="translate(357.9375,424.8125)"/>
<path d="M0 0 C5.94 0 11.88 0 18 0 C18 5.94 18 11.88 18 18 C12.06 18 6.12 18 0 18 C0 12.06 0 6.12 0 0 Z " fill="#000000" transform="translate(194,438)"/>
<path d="M0 0 C0.33 0 0.66 0 1 0 C1 24.42 1 48.84 1 74 C20.8 74 40.6 74 61 74 C61 69.71 61 65.42 61 61 C47.47 61 33.94 61 20 61 C20 60.34 20 59.68 20 59 C34.19 59 48.38 59 63 59 C63 64.28 63 69.56 63 75 C61.23276189 76.76723811 58.6968116 76.12762833 56.30273438 76.12939453 C55.08477173 76.13254669 53.86680908 76.13569885 52.61193848 76.13894653 C51.27254195 76.13715675 49.93314576 76.1351058 48.59375 76.1328125 C47.2299396 76.1334856 45.86612932 76.13445567 44.50231934 76.13571167 C41.64069479 76.13718838 38.7791014 76.13503497 35.91748047 76.13037109 C32.24181386 76.12467381 28.56622026 76.12795296 24.89055634 76.13394356 C22.07337896 76.13754991 19.25621902 76.13641025 16.43904114 76.13381577 C15.08339937 76.1331467 13.72775604 76.13397421 12.37211609 76.13629532 C10.48049956 76.13882301 8.58887751 76.13429014 6.69726562 76.12939453 C5.07963318 76.12820114 5.07963318 76.12820114 3.42932129 76.12698364 C1 76 1 76 0 75 C-0.09492722 72.65746218 -0.12559791 70.34453896 -0.11352539 68.00170898 C-0.11367142 67.27004517 -0.11381744 66.53838135 -0.1139679 65.7845459 C-0.11326867 63.35503216 -0.10547585 60.92559417 -0.09765625 58.49609375 C-0.0957921 56.81600486 -0.09436819 55.13591543 -0.09336853 53.45582581 C-0.08954307 49.02526357 -0.07971256 44.5947339 -0.06866455 40.16418457 C-0.05845103 35.64657024 -0.05387104 31.12895066 -0.04882812 26.61132812 C-0.03809031 17.74087107 -0.02101356 8.87043824 0 0 Z " fill="#9E9E9E" transform="translate(582,410)"/>
<path d="M0 0 C5.28 0 10.56 0 16 0 C16 5.61 16 11.22 16 17 C10.72 17 5.44 17 0 17 C0 11.39 0 5.78 0 0 Z " fill="#010101" transform="translate(233,428)"/>
<path d="M0 0 C7.2265322 -0.05058332 14.45301899 -0.08568412 21.6796875 -0.10986328 C24.13966579 -0.11993983 26.59963206 -0.13360131 29.05957031 -0.15087891 C32.58922285 -0.17505461 36.11871747 -0.1864664 39.6484375 -0.1953125 C40.75367767 -0.20563507 41.85891785 -0.21595764 42.99765015 -0.22659302 C44.01855743 -0.22674408 45.03946472 -0.22689514 46.09130859 -0.22705078 C46.99287689 -0.231492 47.89444519 -0.23593323 48.82333374 -0.24050903 C51 0 51 0 53 2 C36.17 1.67 19.34 1.34 2 1 C2 25.09 2 49.18 2 74 C7.61 74 13.22 74 19 74 C19 66.41 19 58.82 19 51 C19.33 51 19.66 51 20 51 C20 59.25 20 67.5 20 76 C16.885625 76.020625 13.77125 76.04125 10.5625 76.0625 C9.08825562 76.07615601 9.08825562 76.07615601 7.58422852 76.09008789 C6.81522217 76.09258545 6.04621582 76.09508301 5.25390625 76.09765625 C4.46314697 76.10289307 3.6723877 76.10812988 2.85766602 76.11352539 C1 76 1 76 0 75 C-0.09492722 72.65746218 -0.12559791 70.34453896 -0.11352539 68.00170898 C-0.11367142 67.27004517 -0.11381744 66.53838135 -0.1139679 65.7845459 C-0.11326867 63.35503216 -0.10547585 60.92559417 -0.09765625 58.49609375 C-0.0957921 56.81600486 -0.09436819 55.13591543 -0.09336853 53.45582581 C-0.08954307 49.02526357 -0.07971256 44.5947339 -0.06866455 40.16418457 C-0.05845103 35.64657024 -0.05387104 31.12895066 -0.04882812 26.61132812 C-0.03809031 17.74087107 -0.02101356 8.87043824 0 0 Z " fill="#B4B4B4" transform="translate(887,410)"/>
<path d="M0 0 C0.66 0 1.32 0 2 0 C2.98459071 2.3937297 3.96278703 4.7897507 4.9375 7.1875 C5.21529297 7.86103516 5.49308594 8.53457031 5.77929688 9.22851562 C6.18051758 10.21948242 6.18051758 10.21948242 6.58984375 11.23046875 C6.83597412 11.83270264 7.08210449 12.43493652 7.33569336 13.05541992 C8 15 8 15 9 20 C3.72 20 -1.56 20 -7 20 C-6.13396698 15.66983488 -4.98937792 11.88908516 -3.5 7.75 C-3.0565625 6.50734375 -2.613125 5.2646875 -2.15625 3.984375 C-1 1 -1 1 0 0 Z " fill="#202020" transform="translate(1023,436)"/>
<path d="M0 0 C3.63 0 7.26 0 11 0 C11 3.63 11 7.26 11 11 C7.37 11 3.74 11 0 11 C0 7.37 0 3.74 0 0 Z " fill="#0E0E0E" transform="translate(179,449)"/>
<path d="M0 0 C3.63 0 7.26 0 11 0 C11 3.63 11 7.26 11 11 C7.37 11 3.74 11 0 11 C0 7.37 0 3.74 0 0 Z " fill="#0B0B0B" transform="translate(217,438)"/>
<path d="M0 0 C5.94 0 11.88 0 18 0 C18 5.94 18 11.88 18 18 C17.67 18 17.34 18 17 18 C17 12.72 17 7.44 17 2 C12.05 2 7.1 2 2 2 C2 7.28 2 12.56 2 18 C1.34 18 0.68 18 0 18 C0 12.06 0 6.12 0 0 Z " fill="#424242" transform="translate(194,438)"/>
<path d="M0 0 C1.65 0 3.3 0 5 0 C3.96107339 2.82336539 2.89595999 5.63127133 1.8125 8.4375 C1.52052734 9.23994141 1.22855469 10.04238281 0.92773438 10.86914062 C0.07443909 13.04366732 -0.74363455 15.02964705 -2 17 C-4.73828125 18.03515625 -4.73828125 18.03515625 -7 18 C-5.06375702 11.79522136 -2.74390859 5.89174281 0 0 Z " fill="#222222" transform="translate(232,485)"/>
<path d="M0 0 C2.64 0 5.28 0 8 0 C8 2.64 8 5.28 8 8 C5.36 8 2.72 8 0 8 C0 5.36 0 2.72 0 0 Z " fill="#FBFBFB" transform="translate(229,371)"/>
<path d="M0 0 C5.71428571 0.71428571 5.71428571 0.71428571 7 2 C7.04063832 3.66617115 7.042721 5.33388095 7 7 C3.625 7.625 3.625 7.625 0 8 C-0.66 7.34 -1.32 6.68 -2 6 C-1.44444444 1.44444444 -1.44444444 1.44444444 0 0 Z " fill="#1F1F1F" transform="translate(172,490)"/>
<path d="M0 0 C1.32 0 2.64 0 4 0 C3.57855998 2.1490452 3.13737951 4.29422788 2.6875 6.4375 C2.44386719 7.63246094 2.20023438 8.82742188 1.94921875 10.05859375 C1.47935547 11.51458984 1.47935547 11.51458984 1 13 C0.01 13.33 -0.98 13.66 -2 14 C-2 13.34 -2 12.68 -2 12 C-2.99 12.33 -3.98 12.66 -5 13 C-4.54554036 11.58208592 -4.08625056 10.16571954 -3.625 8.75 C-3.24214844 7.56664062 -3.24214844 7.56664062 -2.8515625 6.359375 C-2.04826333 4.13372042 -1.10288338 2.09068328 0 0 Z " fill="#222222" transform="translate(214,485)"/>
<path d="M0 0 C0.33 0.66 0.66 1.32 1 2 C12.22 2 23.44 2 35 2 C33 4 33 4 29.65185547 4.22705078 C28.22359367 4.22673375 26.79530788 4.21541361 25.3671875 4.1953125 C24.23943405 4.19106766 24.23943405 4.19106766 23.08889771 4.18673706 C20.68410422 4.17552874 18.27968119 4.15042352 15.875 4.125 C14.24609912 4.11497102 12.61719242 4.10584503 10.98828125 4.09765625 C6.99204444 4.07558735 2.99608506 4.04105351 -1 4 C-0.67 2.68 -0.34 1.36 0 0 Z " fill="#B8B8B8" transform="translate(230,500)"/>
<path d="M0 0 C1.65 0 3.3 0 5 0 C3.68 3.3 2.36 6.6 1 10 C0.34 9.67 -0.32 9.34 -1 9 C-0.67 6.03 -0.34 3.06 0 0 Z " fill="#181818" transform="translate(232,485)"/>
<path d="M0 0 C0.66 0 1.32 0 2 0 C2 0.66 2 1.32 2 2 C2.99 1.67 3.98 1.34 5 1 C5 2.32 5 3.64 5 5 C4.01 5.33 3.02 5.66 2 6 C2 5.34 2 4.68 2 4 C1.01 4.33 0.02 4.66 -1 5 C-0.67 3.35 -0.34 1.7 0 0 Z " fill="#515151" transform="translate(210,493)"/>
<path d="M0 0 C2 4 2 4 1.625 6.25 C1.41875 6.8275 1.2125 7.405 1 8 C0.34 8 -0.32 8 -1 8 C-1.99 8.495 -1.99 8.495 -3 9 C-2.01 6.03 -1.02 3.06 0 0 Z " fill="#3E3E3E" transform="translate(230,490)"/>
</svg>
